SplineFontDB: 3.2
FontName: Tamzen
FullName: Tamzen
FamilyName: Tamzen
Weight: Medium
Copyright: (c) 2015 Scott Fial
Version: 1.11
ItalicAngle: 0
UnderlinePosition: -150
UnderlineWidth: 100
Ascent: 700
Descent: 200
InvalidEm: 0
sfntRevision: 0x00011c29
LayerCount: 2
Layer: 0 1 "Back" 1
Layer: 1 1 "Fore" 0
XUID: [1021 820 -133215056 9462878]
StyleMap: 0x0040
FSType: 0
OS2Version: 5
OS2_WeightWidthSlopeOnly: 0
OS2_UseTypoMetrics: 1
CreationTime: 1588460591
ModificationTime: 1639897619
PfmFamily: 81
TTFWeight: 500
TTFWidth: 5
LineGap: 0
VLineGap: 0
Panose: 0 0 0 0 0 0 0 0 0 0
OS2TypoAscent: 700
OS2TypoAOffset: 0
OS2TypoDescent: -200
OS2TypoDOffset: 0
OS2TypoLinegap: 0
OS2WinAscent: 700
OS2WinAOffset: 0
OS2WinDescent: 200
OS2WinDOffset: 0
HheadAscent: 700
HheadAOffset: 0
HheadDescent: -200
HheadDOffset: 0
OS2SubXSize: 900
OS2SubYSize: 900
OS2SubXOff: 0
OS2SubYOff: 450
OS2SupXSize: 900
OS2SupYSize: 900
OS2SupXOff: 0
OS2SupYOff: 450
OS2StrikeYSize: 100
OS2StrikeYPos: 350
OS2CapHeight: 500
OS2XHeight: 400
OS2Vendor: 'KBnP'
OS2CodePages: 00000000.00000000
OS2UnicodeRanges: 00000003.00000000.00000000.00000000
DEI: 91125
ShortTable: maxp 16
  1
  0
  191
  88
  22
  0
  0
  2
  0
  0
  0
  0
  0
  0
  0
  0
EndShort
LangName: 1033 "" "" "" "BitsNPicas: Tamzen: 2020" "" "1.11" "" "" "Misc" "" "" "http://www.kreativekorp.com/software/bitsnpicas/"
Encoding: UnicodeBmp
UnicodeInterp: none
NameList: AGL For New Fonts
DisplaySize: -72
AntiAlias: 0
FitToEm: 0
WinInfo: 0 19 9
BeginChars: 65538 29

StartChar: percent
Encoding: 37 37 1
Width: 500
Flags: W
LayerCount: 2
Fore
SplineSet
0 100 m 1,0,-1
 0 200 l 1,1,-1
 100 200 l 1,2,-1
 100 100 l 1,3,-1
 0 100 l 1,0,-1
0 400 m 1,4,-1
 0 600 l 1,5,-1
 200 600 l 1,6,-1
 200 400 l 1,7,-1
 0 400 l 1,4,-1
100 200 m 1,8,-1
 100 300 l 1,9,-1
 200 300 l 1,10,-1
 200 200 l 1,11,-1
 100 200 l 1,8,-1
200 200 m 1,12,-1
 400 200 l 1,13,-1
 400 0 l 1,14,-1
 200 0 l 1,15,-1
 200 200 l 1,12,-1
200 400 m 1,16,-1
 300 400 l 1,17,-1
 300 300 l 1,18,-1
 200 300 l 1,19,-1
 200 400 l 1,16,-1
300 400 m 1,20,-1
 300 500 l 1,21,-1
 400 500 l 1,22,-1
 400 400 l 1,23,-1
 300 400 l 1,20,-1
EndSplineSet
EndChar

StartChar: parenleft
Encoding: 40 40 2
Width: 500
Flags: W
LayerCount: 2
Fore
SplineSet
100 0 m 1,0,-1
 100 400 l 1,1,-1
 200 400 l 1,2,-1
 200 0 l 1,3,-1
 100 0 l 1,0,-1
200 0 m 1,4,-1
 300 0 l 1,5,-1
 300 -100 l 1,6,-1
 200 -100 l 1,7,-1
 200 0 l 1,4,-1
200 400 m 1,8,-1
 200 500 l 1,9,-1
 300 500 l 1,10,-1
 300 400 l 1,11,-1
 200 400 l 1,8,-1
300 -100 m 1,12,-1
 400 -100 l 1,13,-1
 400 -200 l 1,14,-1
 300 -200 l 1,15,-1
 300 -100 l 1,12,-1
300 500 m 1,16,-1
 300 600 l 1,17,-1
 400 600 l 1,18,-1
 400 500 l 1,19,-1
 300 500 l 1,16,-1
EndSplineSet
EndChar

StartChar: parenright
Encoding: 41 41 3
Width: 500
Flags: W
LayerCount: 2
Fore
SplineSet
0 -200 m 1,0,-1
 0 -100 l 1,1,-1
 100 -100 l 1,2,-1
 100 -200 l 1,3,-1
 0 -200 l 1,0,-1
0 500 m 1,4,-1
 0 600 l 1,5,-1
 100 600 l 1,6,-1
 100 500 l 1,7,-1
 0 500 l 1,4,-1
100 -100 m 1,8,-1
 100 0 l 1,9,-1
 200 0 l 1,10,-1
 200 -100 l 1,11,-1
 100 -100 l 1,8,-1
100 500 m 1,12,-1
 200 500 l 1,13,-1
 200 400 l 1,14,-1
 100 400 l 1,15,-1
 100 500 l 1,12,-1
200 0 m 1,16,-1
 200 400 l 1,17,-1
 300 400 l 1,18,-1
 300 0 l 1,19,-1
 200 0 l 1,16,-1
EndSplineSet
EndChar

StartChar: plus
Encoding: 43 43 4
Width: 500
Flags: W
LayerCount: 2
Fore
SplineSet
0 200 m 1,0,-1
 0 300 l 1,1,-1
 200 300 l 1,2,-1
 200 500 l 1,3,-1
 300 500 l 1,4,-1
 300 300 l 1,5,-1
 500 300 l 1,6,-1
 500 200 l 1,7,-1
 300 200 l 1,8,-1
 300 0 l 1,9,-1
 200 0 l 1,10,-1
 200 200 l 1,11,-1
 0 200 l 1,0,-1
EndSplineSet
EndChar

StartChar: hyphen
Encoding: 45 45 5
Width: 500
Flags: W
LayerCount: 2
Fore
SplineSet
0 200 m 1,0,-1
 0 300 l 1,1,-1
 400 300 l 1,2,-1
 400 200 l 1,3,-1
 0 200 l 1,0,-1
EndSplineSet
EndChar

StartChar: period
Encoding: 46 46 6
Width: 500
Flags: W
LayerCount: 2
Fore
SplineSet
100 0 m 1,0,-1
 100 100 l 1,1,-1
 300 100 l 1,2,-1
 300 0 l 1,3,-1
 100 0 l 1,0,-1
EndSplineSet
EndChar

StartChar: slash
Encoding: 47 47 7
Width: 500
Flags: W
LayerCount: 2
Fore
SplineSet
0 100 m 1,0,-1
 100 100 l 1,1,-1
 100 -100 l 1,2,-1
 0 -100 l 1,3,-1
 0 100 l 1,0,-1
100 100 m 1,4,-1
 100 300 l 1,5,-1
 200 300 l 1,6,-1
 200 100 l 1,7,-1
 100 100 l 1,4,-1
200 500 m 1,8,-1
 300 500 l 1,9,-1
 300 300 l 1,10,-1
 200 300 l 1,11,-1
 200 500 l 1,8,-1
EndSplineSet
EndChar

StartChar: zero
Encoding: 48 48 8
Width: 500
Flags: W
LayerCount: 2
Fore
SplineSet
0 100 m 1,0,-1
 0 400 l 1,1,-1
 100 400 l 1,2,-1
 100 100 l 1,3,-1
 0 100 l 1,0,-1
400 100 m 1,4,-1
 300 100 l 1,5,-1
 300 400 l 1,6,-1
 400 400 l 1,7,-1
 400 100 l 1,4,-1
100 100 m 1,8,-1
 300 100 l 1,9,-1
 300 0 l 1,10,-1
 100 0 l 1,11,-1
 100 100 l 1,8,-1
100 400 m 1,12,-1
 100 500 l 1,13,-1
 300 500 l 1,14,-1
 300 400 l 1,15,-1
 100 400 l 1,12,-1
EndSplineSet
EndChar

StartChar: one
Encoding: 49 49 9
Width: 500
Flags: W
LayerCount: 2
Fore
SplineSet
400 100 m 1,0,-1
 400 0 l 1,1,-1
 100 0 l 1,2,-1
 100 100 l 1,3,-1
 200 100 l 1,4,-1
 200 300 l 1,5,-1
 100 300 l 1,6,-1
 100 400 l 1,7,-1
 200 400 l 1,8,-1
 200 500 l 1,9,-1
 300 500 l 1,10,-1
 300 100 l 1,11,-1
 400 100 l 1,0,-1
EndSplineSet
EndChar

StartChar: two
Encoding: 50 50 10
Width: 500
Flags: W
LayerCount: 2
Fore
SplineSet
0 0 m 1,0,-1
 0 100 l 1,1,-1
 100 100 l 1,2,-1
 100 200 l 1,3,-1
 200 200 l 1,4,-1
 200 100 l 1,5,-1
 400 100 l 1,6,-1
 400 0 l 1,7,-1
 0 0 l 1,0,-1
0 400 m 1,8,-1
 0 500 l 1,9,-1
 300 500 l 1,10,-1
 300 400 l 1,11,-1
 0 400 l 1,8,-1
200 200 m 1,12,-1
 200 300 l 1,13,-1
 300 300 l 1,14,-1
 300 200 l 1,15,-1
 200 200 l 1,12,-1
300 400 m 1,16,-1
 400 400 l 1,17,-1
 400 300 l 1,18,-1
 300 300 l 1,19,-1
 300 400 l 1,16,-1
EndSplineSet
EndChar

StartChar: three
Encoding: 51 51 11
Width: 500
Flags: W
LayerCount: 2
Fore
SplineSet
0 0 m 1,0,-1
 0 100 l 1,1,-1
 300 100 l 1,2,-1
 300 0 l 1,3,-1
 0 0 l 1,0,-1
0 400 m 1,4,-1
 0 500 l 1,5,-1
 400 500 l 1,6,-1
 400 400 l 1,7,-1
 300 400 l 1,8,-1
 300 200 l 1,9,-1
 100 200 l 1,10,-1
 100 300 l 1,11,-1
 200 300 l 1,12,-1
 200 400 l 1,13,-1
 0 400 l 1,4,-1
300 200 m 1,14,-1
 400 200 l 1,15,-1
 400 100 l 1,16,-1
 300 100 l 1,17,-1
 300 200 l 1,14,-1
EndSplineSet
EndChar

StartChar: four
Encoding: 52 52 12
Width: 500
Flags: W
LayerCount: 2
Fore
SplineSet
0 100 m 1,0,-1
 0 300 l 1,1,-1
 100 300 l 1,2,-1
 100 200 l 1,3,-1
 200 200 l 1,4,-1
 200 300 l 1,5,-1
 100 300 l 1,6,-1
 100 400 l 1,7,-1
 200 400 l 1,8,-1
 200 500 l 1,9,-1
 300 500 l 1,10,-1
 300 200 l 1,11,-1
 400 200 l 1,12,-1
 400 100 l 1,13,-1
 300 100 l 1,14,-1
 300 0 l 1,15,-1
 200 0 l 1,16,-1
 200 100 l 1,17,-1
 0 100 l 1,0,-1
EndSplineSet
EndChar

StartChar: five
Encoding: 53 53 13
Width: 500
Flags: W
LayerCount: 2
Fore
SplineSet
0 0 m 1,0,-1
 0 100 l 1,1,-1
 300 100 l 1,2,-1
 300 0 l 1,3,-1
 0 0 l 1,0,-1
0 200 m 1,4,-1
 0 500 l 1,5,-1
 400 500 l 1,6,-1
 400 400 l 1,7,-1
 100 400 l 1,8,-1
 100 300 l 1,9,-1
 300 300 l 1,10,-1
 300 200 l 1,11,-1
 0 200 l 1,4,-1
300 200 m 1,12,-1
 400 200 l 1,13,-1
 400 100 l 1,14,-1
 300 100 l 1,15,-1
 300 200 l 1,12,-1
EndSplineSet
EndChar

StartChar: six
Encoding: 54 54 14
Width: 500
Flags: W
LayerCount: 2
Fore
SplineSet
0 100 m 1,0,-1
 0 400 l 1,1,-1
 100 400 l 1,2,-1
 100 300 l 1,3,-1
 300 300 l 1,4,-1
 300 200 l 1,5,-1
 100 200 l 1,6,-1
 100 100 l 1,7,-1
 0 100 l 1,0,-1
100 100 m 1,8,-1
 300 100 l 1,9,-1
 300 0 l 1,10,-1
 100 0 l 1,11,-1
 100 100 l 1,8,-1
100 400 m 1,12,-1
 100 500 l 1,13,-1
 300 500 l 1,14,-1
 300 400 l 1,15,-1
 100 400 l 1,12,-1
300 200 m 1,16,-1
 400 200 l 1,17,-1
 400 100 l 1,18,-1
 300 100 l 1,19,-1
 300 200 l 1,16,-1
EndSplineSet
EndChar

StartChar: seven
Encoding: 55 55 15
Width: 500
Flags: W
LayerCount: 2
Fore
SplineSet
0 400 m 1,0,-1
 0 500 l 1,1,-1
 400 500 l 1,2,-1
 400 400 l 1,3,-1
 300 400 l 1,4,-1
 300 200 l 1,5,-1
 200 200 l 1,6,-1
 200 400 l 1,7,-1
 0 400 l 1,0,-1
100 200 m 1,8,-1
 200 200 l 1,9,-1
 200 0 l 1,10,-1
 100 0 l 1,11,-1
 100 200 l 1,8,-1
EndSplineSet
EndChar

StartChar: eight
Encoding: 56 56 16
Width: 500
Flags: W
LayerCount: 2
Fore
SplineSet
0 100 m 1,0,-1
 0 200 l 1,1,-1
 100 200 l 1,2,-1
 100 100 l 1,3,-1
 0 100 l 1,0,-1
0 300 m 1,4,-1
 0 400 l 1,5,-1
 100 400 l 1,6,-1
 100 300 l 1,7,-1
 0 300 l 1,4,-1
100 200 m 1,8,-1
 100 300 l 1,9,-1
 300 300 l 1,10,-1
 300 200 l 1,11,-1
 100 200 l 1,8,-1
100 100 m 1,12,-1
 300 100 l 1,13,-1
 300 0 l 1,14,-1
 100 0 l 1,15,-1
 100 100 l 1,12,-1
100 400 m 1,16,-1
 100 500 l 1,17,-1
 300 500 l 1,18,-1
 300 400 l 1,19,-1
 100 400 l 1,16,-1
300 200 m 1,20,-1
 400 200 l 1,21,-1
 400 100 l 1,22,-1
 300 100 l 1,23,-1
 300 200 l 1,20,-1
300 400 m 1,24,-1
 400 400 l 1,25,-1
 400 300 l 1,26,-1
 300 300 l 1,27,-1
 300 400 l 1,24,-1
EndSplineSet
EndChar

StartChar: nine
Encoding: 57 57 17
Width: 500
Flags: W
LayerCount: 2
Fore
SplineSet
0 300 m 1,0,-1
 0 400 l 1,1,-1
 100 400 l 1,2,-1
 100 300 l 1,3,-1
 0 300 l 1,0,-1
100 200 m 1,4,-1
 100 300 l 1,5,-1
 300 300 l 1,6,-1
 300 400 l 1,7,-1
 400 400 l 1,8,-1
 400 100 l 1,9,-1
 300 100 l 1,10,-1
 300 200 l 1,11,-1
 100 200 l 1,4,-1
100 0 m 1,12,-1
 100 100 l 1,13,-1
 300 100 l 1,14,-1
 300 0 l 1,15,-1
 100 0 l 1,12,-1
100 400 m 1,16,-1
 100 500 l 1,17,-1
 300 500 l 1,18,-1
 300 400 l 1,19,-1
 100 400 l 1,16,-1
EndSplineSet
EndChar

StartChar: colon
Encoding: 58 58 18
Width: 500
Flags: W
LayerCount: 2
Fore
SplineSet
100 0 m 1,0,-1
 100 100 l 1,1,-1
 300 100 l 1,2,-1
 300 0 l 1,3,-1
 100 0 l 1,0,-1
100 300 m 1,4,-1
 100 400 l 1,5,-1
 300 400 l 1,6,-1
 300 300 l 1,7,-1
 100 300 l 1,4,-1
EndSplineSet
EndChar

StartChar: less
Encoding: 60 60 19
Width: 500
Flags: W
LayerCount: 2
Fore
SplineSet
100 200 m 1,0,-1
 100 300 l 1,1,-1
 200 300 l 1,2,-1
 200 200 l 1,3,-1
 100 200 l 1,0,-1
200 200 m 1,4,-1
 300 200 l 1,5,-1
 300 100 l 1,6,-1
 200 100 l 1,7,-1
 200 200 l 1,4,-1
200 300 m 1,8,-1
 200 400 l 1,9,-1
 300 400 l 1,10,-1
 300 300 l 1,11,-1
 200 300 l 1,8,-1
300 100 m 1,12,-1
 400 100 l 1,13,-1
 400 0 l 1,14,-1
 300 0 l 1,15,-1
 300 100 l 1,12,-1
300 400 m 1,16,-1
 300 500 l 1,17,-1
 400 500 l 1,18,-1
 400 400 l 1,19,-1
 300 400 l 1,16,-1
EndSplineSet
EndChar

StartChar: equal
Encoding: 61 61 20
Width: 500
Flags: W
LayerCount: 2
Fore
SplineSet
0 100 m 1,0,-1
 0 200 l 1,1,-1
 400 200 l 1,2,-1
 400 100 l 1,3,-1
 0 100 l 1,0,-1
0 300 m 1,4,-1
 0 400 l 1,5,-1
 400 400 l 1,6,-1
 400 300 l 1,7,-1
 0 300 l 1,4,-1
EndSplineSet
EndChar

StartChar: greater
Encoding: 62 62 21
Width: 500
Flags: W
LayerCount: 2
Fore
SplineSet
100 0 m 1,0,-1
 100 100 l 1,1,-1
 200 100 l 1,2,-1
 200 0 l 1,3,-1
 100 0 l 1,0,-1
100 400 m 1,4,-1
 100 500 l 1,5,-1
 200 500 l 1,6,-1
 200 400 l 1,7,-1
 100 400 l 1,4,-1
200 100 m 1,8,-1
 200 200 l 1,9,-1
 300 200 l 1,10,-1
 300 100 l 1,11,-1
 200 100 l 1,8,-1
200 400 m 1,12,-1
 300 400 l 1,13,-1
 300 300 l 1,14,-1
 200 300 l 1,15,-1
 200 400 l 1,12,-1
300 200 m 1,16,-1
 300 300 l 1,17,-1
 400 300 l 1,18,-1
 400 200 l 1,19,-1
 300 200 l 1,16,-1
EndSplineSet
EndChar

StartChar: L
Encoding: 76 76 22
Width: 500
Flags: W
LayerCount: 2
Fore
SplineSet
0 0 m 1,0,-1
 0 500 l 1,1,-1
 100 500 l 1,2,-1
 100 100 l 1,3,-1
 400 100 l 1,4,-1
 400 0 l 1,5,-1
 0 0 l 1,0,-1
EndSplineSet
EndChar

StartChar: M
Encoding: 77 77 23
Width: 500
Flags: W
LayerCount: 2
Fore
SplineSet
0 0 m 1,0,-1
 0 500 l 1,1,-1
 100 500 l 1,2,-1
 100 400 l 1,3,-1
 300 400 l 1,4,-1
 300 500 l 1,5,-1
 400 500 l 1,6,-1
 400 0 l 1,7,-1
 300 0 l 1,8,-1
 300 300 l 1,9,-1
 100 300 l 1,10,-1
 100 0 l 1,11,-1
 0 0 l 1,0,-1
EndSplineSet
EndChar

StartChar: P
Encoding: 80 80 24
Width: 500
Flags: W
LayerCount: 2
Fore
SplineSet
0 0 m 1,0,-1
 0 500 l 1,1,-1
 300 500 l 1,2,-1
 300 400 l 1,3,-1
 100 400 l 1,4,-1
 100 300 l 1,5,-1
 300 300 l 1,6,-1
 300 200 l 1,7,-1
 100 200 l 1,8,-1
 100 0 l 1,9,-1
 0 0 l 1,0,-1
400 400 m 1,10,-1
 400 300 l 1,11,-1
 300 300 l 1,12,-1
 300 400 l 1,13,-1
 400 400 l 1,10,-1
EndSplineSet
EndChar

StartChar: m
Encoding: 109 109 25
Width: 500
Flags: W
LayerCount: 2
Fore
SplineSet
0 0 m 1,0,-1
 0 400 l 1,1,-1
 100 400 l 1,2,-1
 100 300 l 1,3,-1
 200 300 l 1,4,-1
 200 400 l 1,5,-1
 400 400 l 1,6,-1
 400 0 l 1,7,-1
 300 0 l 1,8,-1
 300 200 l 1,9,-1
 100 200 l 1,10,-1
 100 0 l 1,11,-1
 0 0 l 1,0,-1
EndSplineSet
EndChar

StartChar: degree
Encoding: 176 176 26
Width: 500
Flags: W
LayerCount: 2
Fore
SplineSet
0 300 m 1,0,-1
 0 400 l 1,1,-1
 100 400 l 1,2,-1
 100 300 l 1,3,-1
 0 300 l 1,0,-1
400 400 m 1,4,-1
 400 300 l 1,5,-1
 300 300 l 1,6,-1
 300 400 l 1,7,-1
 400 400 l 1,4,-1
100 200 m 1,8,-1
 100 300 l 1,9,-1
 300 300 l 1,10,-1
 300 200 l 1,11,-1
 100 200 l 1,8,-1
100 400 m 1,12,-1
 100 500 l 1,13,-1
 300 500 l 1,14,-1
 300 400 l 1,15,-1
 100 400 l 1,12,-1
EndSplineSet
EndChar

StartChar: mu
Encoding: 181 181 27
Width: 500
Flags: W
LayerCount: 2
Fore
SplineSet
300 100 m 1,0,-1
 100 100 l 1,1,-1
 0 100 l 1,2,-1
 0 0 l 1,3,-1
 100 0 l 1,4,-1
 100 -200 l 1,5,-1
 0 -200 l 1,6,-1
 0 0 l 1,7,-1
 100 0 l 1,8,-1
 399 0 l 1,9,-1
 399 100 l 1,10,-1
 300 100 l 1,0,-1
300 100 m 1,11,-1
 300 400 l 1,12,-1
 400 400 l 1,13,-1
 400 100 l 1,14,-1
 399 100 l 1,15,-1
 300 100 l 1,11,-1
100 100 m 1,16,-1
 0 100 l 1,17,-1
 0 400 l 1,18,-1
 100 400 l 1,19,-1
 100 100 l 1,16,-1
EndSplineSet
EndChar

StartChar: comma
Encoding: 44 44 28
Width: 500
Flags: W
LayerCount: 2
Fore
SplineSet
100 0 m 1,0,-1
 100 100 l 1,1,-1
 300 100 l 1,2,-1
 300 -100 l 1,3,-1
 200 -100 l 1,4,-1
 200 0 l 1,5,-1
 100 0 l 1,0,-1
100 -200 m 1,6,-1
 100 -100 l 1,7,-1
 200 -100 l 1,8,-1
 200 -200 l 1,9,-1
 100 -200 l 1,6,-1
EndSplineSet
EndChar
